<?xml version="1.0" encoding="utf-8"?>
<!-- Generator: Adobe Illustrator 26.5.1, SVG Export Plug-In . SVG Version: 6.00 Build 0)  -->
<svg version="1.1" xmlns="http://www.w3.org/2000/svg" xmlns:xlink="http://www.w3.org/1999/xlink" x="0px" y="0px"
	 viewBox="0 0 255.23 255.23" style="enable-background:new 0 0 255.23 255.23;" xml:space="preserve">
<style type="text/css">
	.st0{fill:#FFFFFF;stroke:#A24E9E;stroke-width:8;stroke-miterlimit:10;}
	.st1{fill:#A24E9E;}
	.st2{fill:none;stroke:#A24E9E;stroke-width:8;stroke-miterlimit:10;}
</style>
<g id="Layer_1">
	<circle class="st0" cx="127.62" cy="127.62" r="123.54"/>
</g>
<g id="Layer_2">
	<rect x="39.03" y="159.3" class="st1" width="175.35" height="30.58"/>
	<g>
		<g>
			<line class="st2" x1="128.19" y1="149.23" x2="128.19" y2="56.85"/>
			<g>
				<path class="st1" d="M112.01,59.42c6.75-4,12.06-10.22,16.18-16.84c4.06,6.68,9.56,12.64,16.18,16.84v3.99
					c-6.42-4.19-11.99-9.23-16.18-15.46c-4.26,6.23-9.89,11.47-16.18,15.53V59.42z"/>
				<path class="st1" d="M112.01,69.05c6.75-4,12.06-10.22,16.18-16.83c4.06,6.68,9.56,12.64,16.18,16.83v3.99
					c-6.42-4.19-11.99-9.23-16.18-15.46c-4.26,6.22-9.89,11.46-16.18,15.52V69.05z"/>
			</g>
		</g>
	</g>
	<g>
		<g>
			<line class="st2" x1="184.39" y1="149.1" x2="184.39" y2="86.72"/>
			<g>
				<path class="st1" d="M168.21,89.29c6.75-4,12.06-10.22,16.18-16.84c4.06,6.68,9.56,12.64,16.18,16.84v3.99
					c-6.42-4.19-11.99-9.23-16.18-15.46c-4.26,6.23-9.89,11.47-16.18,15.53V89.29z"/>
				<path class="st1" d="M168.21,98.92c6.75-4,12.06-10.22,16.18-16.83c4.06,6.68,9.56,12.64,16.18,16.83v3.99
					c-6.42-4.19-11.99-9.23-16.18-15.46c-4.26,6.22-9.89,11.46-16.18,15.52V98.92z"/>
			</g>
		</g>
	</g>
	<g>
		<g>
			<line class="st2" x1="71.68" y1="149.17" x2="71.68" y2="86.78"/>
			<g>
				<path class="st1" d="M55.5,89.36c6.75-4,12.06-10.22,16.18-16.84c4.06,6.68,9.56,12.64,16.18,16.84v3.99
					c-6.42-4.19-11.99-9.23-16.18-15.46c-4.26,6.23-9.89,11.47-16.18,15.53V89.36z"/>
				<path class="st1" d="M55.5,98.99c6.75-4,12.06-10.22,16.18-16.83c4.06,6.68,9.56,12.64,16.18,16.83v3.99
					c-6.42-4.19-11.99-9.23-16.18-15.46c-4.26,6.22-9.89,11.46-16.18,15.52V98.99z"/>
			</g>
		</g>
	</g>
</g>
</svg>
