<?xml version="1.0" encoding="utf-8"?>
<!-- Generator: Adobe Illustrator 26.5.1, SVG Export Plug-In . SVG Version: 6.00 Build 0)  -->
<svg version="1.1" id="Layer_1" xmlns="http://www.w3.org/2000/svg" xmlns:xlink="http://www.w3.org/1999/xlink" x="0px" y="0px"
	 viewBox="0 0 255.23 255.23" style="enable-background:new 0 0 255.23 255.23;" xml:space="preserve">
<style type="text/css">
	.st0{fill:#FFFFFF;stroke:#81C341;stroke-width:8;stroke-miterlimit:10;}
	.st1{fill:#80C342;}
	.st2{fill:#D5E8C1;}
</style>
<g id="Layer_1_00000007414135575703765480000012598158763772472488_">
	<circle class="st0" cx="127.62" cy="127.62" r="123.54"/>
</g>
<g id="Layer_2_00000116953577996981816760000018435597942931678886_">
	<rect x="59.18" y="109.47" class="st1" width="136.88" height="36.28"/>
	<polygon class="st2" points="192.82,109.47 176.39,145.76 163.04,145.76 179.48,109.47 	"/>
	<polygon class="st2" points="172.18,109.47 155.76,145.76 142.41,145.76 158.83,109.47 	"/>
</g>
<path class="st1" d="M245.03,127.67l-12.49,14.2c-0.02,0.03-0.05-0.01-0.05-0.06v-8.43h-33.65v-11.54h33.65v-8.43
	c0-0.05,0.03-0.08,0.05-0.05l12.49,14.2C245.05,127.58,245.05,127.64,245.03,127.67z"/>
<path class="st1" d="M10.2,127.56l12.49-14.2c0.02-0.03,0.05,0.01,0.05,0.06v8.43h33.65v11.54H22.74v8.43
	c0,0.05-0.03,0.08-0.05,0.05l-12.49-14.2C10.18,127.65,10.18,127.59,10.2,127.56z"/>
</svg>
