<?xml version="1.0" encoding="utf-8"?>
<!-- Generator: Adobe Illustrator 26.5.1, SVG Export Plug-In . SVG Version: 6.00 Build 0)  -->
<svg version="1.1" xmlns="http://www.w3.org/2000/svg" xmlns:xlink="http://www.w3.org/1999/xlink" x="0px" y="0px"
	 viewBox="0 0 255.23 255.23" style="enable-background:new 0 0 255.23 255.23;" xml:space="preserve">
<style type="text/css">
	.st0{fill:none;stroke:#A24E9E;stroke-width:12;stroke-miterlimit:10;}
	.st1{fill:#A24E9E;}
</style>
<g id="Layer_1">
</g>
<g id="Layer_2">
	<g>
		<g>
			<line class="st0" x1="128.32" y1="236.85" x2="128.32" y2="22.65"/>
			<g>
				<path class="st1" d="M104.05,26.51c10.12-6,18.08-15.33,24.27-25.26c6.09,10.02,14.34,18.97,24.27,25.26v5.99
					c-9.62-6.29-17.98-13.85-24.27-23.19c-6.38,9.34-14.84,17.2-24.27,23.29V26.51z"/>
				<path class="st1" d="M104.05,40.95c10.12-6,18.08-15.33,24.27-25.25c6.09,10.02,14.34,18.96,24.27,25.25v5.99
					c-9.62-6.28-17.98-13.85-24.27-23.18c-6.38,9.33-14.84,17.19-24.27,23.28V40.95z"/>
			</g>
		</g>
	</g>
	<g>
		<g>
			<line class="st0" x1="229.1" y1="236.55" x2="229.1" y2="91.91"/>
			<g>
				<path class="st1" d="M204.82,95.77c10.12-6,18.08-15.33,24.27-25.26c6.09,10.02,14.34,18.97,24.27,25.26v5.99
					c-9.62-6.29-17.98-13.85-24.27-23.19c-6.38,9.34-14.84,17.2-24.27,23.29V95.77z"/>
				<path class="st1" d="M204.82,110.21c10.12-6,18.08-15.33,24.27-25.25c6.09,10.02,14.34,18.96,24.27,25.25v5.99
					c-9.62-6.28-17.98-13.85-24.27-23.18c-6.38,9.33-14.84,17.19-24.27,23.28V110.21z"/>
			</g>
		</g>
	</g>
	<g>
		<g>
			<line class="st0" x1="26.97" y1="236.7" x2="26.97" y2="92.06"/>
			<g>
				<path class="st1" d="M2.7,95.92c10.12-6,18.08-15.33,24.27-25.26c6.09,10.02,14.34,18.97,24.27,25.26v5.99
					c-9.62-6.29-17.98-13.85-24.27-23.19c-6.38,9.34-14.84,17.2-24.27,23.29V95.92z"/>
				<path class="st1" d="M2.7,110.36c10.12-6,18.08-15.33,24.27-25.25c6.09,10.02,14.34,18.96,24.27,25.25v5.99
					c-9.62-6.28-17.98-13.85-24.27-23.18c-6.38,9.33-14.84,17.19-24.27,23.28V110.36z"/>
			</g>
		</g>
	</g>
</g>
</svg>
