<?xml version="1.0" encoding="utf-8"?>
<!-- Generator: Adobe Illustrator 26.5.1, SVG Export Plug-In . SVG Version: 6.00 Build 0)  -->
<svg version="1.1" xmlns="http://www.w3.org/2000/svg" xmlns:xlink="http://www.w3.org/1999/xlink" x="0px" y="0px"
	 viewBox="0 0 255.23 255.23" style="enable-background:new 0 0 255.23 255.23;" xml:space="preserve">
<style type="text/css">
	.st0{display:none;}
	.st1{display:inline;}
	.st2{fill:#FFFFFF;stroke:#81C341;stroke-width:8;stroke-miterlimit:10;}
	.st3{fill:#80C342;}
	.st4{fill:#D5E8C1;}
</style>
<g id="Layer_2" class="st0">
	<g id="Layer_1_00000007414135575703765480000012598158763772472488_" class="st1">
		<circle class="st2" cx="127.62" cy="127.62" r="123.54"/>
	</g>
</g>
<g id="Layer_1">
	<g id="Layer_2_00000116953577996981816760000018435597942931678886_">
		<rect x="54.9" y="108.34" class="st3" width="145.44" height="38.55"/>
		<polygon class="st4" points="196.9,108.34 179.45,146.89 165.25,146.89 182.73,108.34 		"/>
		<polygon class="st4" points="174.97,108.34 157.52,146.89 143.34,146.89 160.79,108.34 		"/>
	</g>
	<path class="st3" d="M252.37,127.68l-13.27,15.08c-0.02,0.03-0.06-0.01-0.06-0.07v-8.96h-35.75v-12.26h35.75v-8.96
		c0-0.06,0.03-0.09,0.06-0.06l13.27,15.08C252.39,127.58,252.39,127.64,252.37,127.68z"/>
	<path class="st3" d="M2.86,127.55l13.27-15.08c0.02-0.03,0.06,0.01,0.06,0.07v8.96h35.75v12.26H16.19v8.96
		c0,0.06-0.03,0.09-0.06,0.06L2.86,127.67C2.84,127.65,2.84,127.59,2.86,127.55z"/>
</g>
</svg>
